<svg width="1464" height="836" viewBox="0 0 1464 836" fill="none" xmlns="http://www.w3.org/2000/svg">
<path opacity="0.5" d="M403.416 782.653C396.729 782.936 390.325 784.235 383.885 784.261C377.444 784.287 370.615 785.3 364.171 785.055C357.726 784.81 350.832 783.72 344.383 783.204C337.933 782.687 330.949 782.92 324.547 782.127C318.145 781.334 311.105 780.902 304.736 779.815C298.037 778.673 292.242 774.026 285.938 772.652C279.292 771.205 272.793 770.282 266.589 768.626C259.994 766.875 253.607 765.401 247.518 763.466C241.013 761.389 234.389 760.202 228.465 757.996C222.033 755.589 215.093 754.676 209.369 752.191C203.012 749.441 199.049 743.385 193.567 740.67C187.257 737.545 180.453 736.128 175.313 733.201C168.872 729.555 162.176 727.502 157.616 724.546C148.91 718.891 144.797 712.623 143.048 711.457C137.655 712.985 130.841 712.122 123.105 708.127C117.798 705.385 111.59 701.963 105.662 697.294C100.75 693.424 95.7323 688.882 90.6467 684.043C86.0428 679.657 81.4039 674.88 76.8286 669.929C72.2532 664.977 68.2069 660.202 64.0196 655.161C59.8323 650.119 55.5931 645.183 51.7374 640.084C47.7713 634.838 45.1361 629.435 41.8821 624.78C38.1229 619.413 32.0328 615.499 29.1481 610.666C25.8827 605.184 27.0574 598.594 24.8218 593.43C22.443 587.914 19.7983 582.765 18.5199 577.153C17.2416 571.54 17.402 566.229 17.0974 560.27C16.8323 554.972 14.6064 549.254 15.0119 543.202C15.3628 537.967 17.6844 532.598 18.4896 526.586C19.1932 521.368 18.0607 515.495 19.0751 509.547C19.9787 504.249 21.1362 498.952 21.3392 493.293C21.5421 487.933 20.5483 482.439 20.2481 476.751C19.9619 471.379 23.5086 465.777 22.8675 460.102C22.2615 454.718 19.6381 449.246 18.8253 443.584C18.0126 437.922 17.7781 432.644 16.8619 426.993C15.9457 421.342 11.3774 416.35 10.4401 410.724C9.50268 405.098 8.60972 399.807 7.72407 394.175C6.83841 388.544 7.72799 383.13 6.94345 377.501C6.1589 371.873 6.73567 366.505 6.05224 360.88C5.3688 355.255 6.9613 349.889 6.44716 344.264C5.93302 338.639 2.2138 333.336 1.86896 327.711C1.52412 322.087 1.95974 316.752 1.81711 311.133C1.67448 305.515 4.60714 300.336 4.66437 294.737C4.7216 289.138 -0.168341 283.45 0.0887389 277.871C0.345819 272.292 0.906163 266.922 1.39837 261.355C1.89058 255.787 5.6578 250.878 6.36632 245.334C7.08192 239.748 9.70184 234.714 10.7018 229.447C11.7017 224.18 9.46913 217.906 10.7982 212.695C12.1273 207.484 13.7152 201.947 15.4017 196.826C17.0881 191.704 20.3922 186.731 22.4501 181.715C24.508 176.7 27.9484 171.92 30.373 167.038C32.7977 162.156 33.4547 156.219 36.2437 151.484C39.0327 146.75 40.0119 140.711 43.1629 136.138C46.314 131.565 51.1506 127.536 54.6119 123.13C58.0733 118.724 60.872 113.536 64.6271 109.294C68.3823 105.052 72.4503 100.664 76.4476 96.5914C80.4448 92.5188 87.9795 90.8431 92.1742 86.9037C96.3689 82.9644 101.078 79.2837 105.407 75.4526C109.736 71.6216 114.492 67.9631 118.91 64.2042C123.328 60.4454 124.035 53.3205 128.47 49.5644C132.904 45.8083 138.669 42.9909 143.04 39.2097C147.411 35.4286 153.993 33.1776 158.23 29.2882C162.987 24.9324 168.108 21.9197 173.139 18.7351C178.664 15.2363 182.817 10.8485 188.716 8.63745C194.614 6.42642 201.727 6.72847 208.325 5.67596C214.924 4.62345 220.788 0.726874 227.757 0.776748C234.339 0.817392 240.975 4.31213 248.005 5.19796C254.536 6.02725 261.075 7.01429 268.008 8.46725C274.45 9.82216 281.304 10.2509 288.141 12.0717C294.524 13.7725 301.825 13.4661 308.556 15.5108C314.885 17.4301 321.672 18.8439 328.33 21.0186C334.635 23.0761 339.69 28.6926 346.3 30.9446C352.911 33.1966 360.239 32.3396 366.814 34.5998C373.39 36.86 377.868 42.976 384.446 45.2224C391.024 47.4689 399.173 44.7733 405.741 46.9754C411.813 49.0075 416.63 55.224 423.312 56.9614C429.554 58.5954 437.079 56.1779 443.818 57.5833C450.163 58.9076 456.702 59.5957 463.452 60.7327C470.202 61.8697 476.147 64.4495 482.916 65.3762C489.685 66.3029 495.651 70.7509 502.415 71.506C509.18 72.2611 515.641 72.8079 522.396 73.4191C529.151 74.0303 535.717 72.2747 542.458 72.7697C549.199 73.2646 555.663 73.9968 562.387 74.3893C569.112 74.7818 575.613 75.0934 582.333 75.4139C589.053 75.7344 595.582 76.8765 602.298 77.125C609.013 77.3735 615.51 76.2184 622.216 76.4226C628.922 76.6268 635.401 75.1838 642.098 75.3437C648.794 75.5037 655.357 76.1531 662.03 76.2521C668.703 76.3511 675.263 76.1177 681.922 76.2C688.581 76.2824 695.254 77.8759 701.915 77.9444C708.576 78.0129 715.188 78.2722 721.838 78.3103C728.487 78.3483 735.239 80.4678 741.875 80.4892C748.51 80.5106 755.139 80.4739 761.791 80.4981C768.443 80.5223 774.978 79.2455 781.63 79.2697C788.282 79.2939 794.815 77.6323 801.448 77.6676C808.081 77.7028 814.801 78.6211 821.432 78.6702C828.063 78.7192 834.596 76.2606 841.208 76.3207C847.82 76.3808 854.533 76.6432 861.159 76.7199C867.785 76.7966 874.682 81.0475 881.287 81.1491C887.891 81.2507 894.607 81.7981 901.221 81.944C907.835 82.0899 914.474 80.603 921.081 80.7904C927.688 80.9778 934.342 77.6144 940.94 77.8572C947.724 78.1031 954.418 82.348 961.119 83.078C967.82 83.8081 974.247 85.9434 980.906 87.1217C987.564 88.3 994.918 86.2945 1001.5 87.9016C1008.09 89.5087 1014.19 92.6839 1020.66 94.6699C1027.13 96.6559 1032.76 100.336 1039.09 102.654C1045.42 104.972 1052.38 105.788 1058.55 108.407C1064.73 111.027 1069.77 115.417 1075.8 118.31C1081.83 121.202 1088.25 123.252 1094.14 126.377C1100.03 129.502 1105.84 132.571 1111.55 135.895C1117.27 139.218 1123.96 141.327 1129.52 144.824C1135.09 148.322 1141.71 150.746 1147.13 154.403C1152.55 158.061 1157.05 162.857 1162.32 166.645C1167.58 170.432 1172.02 175.203 1177.16 179.112C1182.3 183.021 1188.06 186.522 1193.06 190.536C1198.07 194.55 1202.1 199.649 1206.99 203.743C1211.88 207.837 1217.96 211.209 1222.73 215.396C1227.51 219.584 1229.83 226.016 1234.48 230.253C1239.12 234.49 1245.89 237.509 1250.44 241.802C1254.99 246.094 1261.42 249.539 1265.85 253.853C1270.55 258.442 1272.72 264.618 1277.04 268.957C1281.71 273.64 1288.17 276.791 1292.4 281.113C1297.1 285.929 1298.53 292.522 1302.63 296.78C1307.45 301.773 1312.75 305.752 1316.73 309.833C1322.03 315.278 1325.18 320.954 1328.87 324.386C1332.7 327.943 1336.79 332.129 1341.36 337.349C1345.01 341.545 1352.8 343.941 1356.81 349.023C1360.33 353.496 1360.98 359.827 1364.69 364.873C1368.1 369.511 1374.16 373.135 1377.65 378.172C1380.97 382.937 1383.23 388.361 1386.57 393.401C1389.91 398.44 1394.3 402.691 1397.5 407.749C1400.7 412.808 1404.78 417.331 1407.84 422.395C1410.91 427.459 1410.97 433.634 1413.9 438.716C1416.83 443.799 1418.72 449.275 1421.51 454.363C1424.3 459.451 1427.36 464.57 1430.01 469.677C1432.66 474.784 1435.97 479.918 1438.43 485.035C1440.9 490.153 1441.69 496.111 1443.94 501.233C1446.34 506.724 1451.29 511.314 1453.25 516.444C1455.4 522.106 1454.24 528.029 1455.75 533.127C1457.52 539.051 1458.73 544.282 1459.5 549.282C1460.5 555.731 1464.25 561.294 1463.31 565.775C1462.29 570.683 1458.19 575.364 1455.7 581.103C1453.61 585.928 1453.02 591.763 1450.01 597.073C1447.33 601.796 1444.31 606.704 1440.98 611.73C1437.92 616.348 1436.5 622.17 1432.95 626.988C1429.62 631.53 1425.75 636.038 1422.05 640.687C1418.34 645.336 1412 647.955 1408.15 652.479C1404.29 657.003 1403.9 663.484 1399.93 667.903C1395.96 672.321 1387.6 673.53 1383.55 677.849C1379.49 682.168 1376.31 686.934 1372.15 691.151C1367.99 695.367 1365.59 700.835 1361.33 704.963C1357.07 709.09 1353.62 713.897 1349.27 717.925C1344.93 721.952 1340.02 725.699 1335.59 729.627C1331.16 733.554 1325.88 737.01 1321.37 740.837C1316.85 744.665 1313.53 749.877 1308.91 753.588C1304.48 757.159 1299.47 760.861 1294.22 764.35C1289.36 767.562 1284.19 771.065 1278.66 774.165C1273.49 777.07 1267.97 780.156 1262.26 782.954C1256.84 785.59 1250.36 787.174 1244.48 789.687C1238.59 792.2 1231.41 791.742 1225.41 794.009C1219.42 796.275 1213.39 797.567 1207.29 799.6C1201.18 801.633 1197.28 807.403 1191.09 809.237C1184.9 811.071 1177.72 810.016 1171.45 811.636C1165.17 813.257 1158.94 814.172 1152.61 815.613C1146.29 817.053 1139.71 816.899 1133.31 818.143C1126.92 819.387 1121.04 821.288 1114.61 822.355C1108.28 823.397 1103.05 828.726 1096.57 829.599C1090.09 830.472 1083.15 828.947 1076.63 829.643C1070.11 830.338 1063.79 831.425 1057.23 831.943C1050.67 832.462 1044.08 831.806 1037.5 832.151C1030.92 832.495 1024.36 831.646 1017.76 831.802C1011.16 831.958 1004.74 832.285 998.139 832.256C991.538 832.226 985.134 835.219 978.532 835.004C971.929 834.789 965.37 832.133 958.751 831.716C952.133 831.299 945.634 830.774 939.031 830.16C932.429 829.547 925.635 831.847 919.049 831.037C912.513 830.235 906.539 824.747 899.97 823.74C893.4 822.734 886.923 822.184 880.405 820.973C873.789 819.745 866.713 821.214 860.205 820.047C853.698 818.881 846.997 817.752 840.484 816.613C833.971 815.474 827.247 814.583 820.709 813.496C814.17 812.41 807.507 811.259 800.978 810.217C794.449 809.174 787.594 809.244 781.058 808.243C774.522 807.242 768.053 804.658 761.507 803.712C754.961 802.767 748.166 802.59 741.594 801.697C735.023 800.804 728.308 800.356 721.727 799.518C715.146 798.681 708.946 792.926 702.372 792.146C695.798 791.367 688.872 792.848 682.27 792.134C675.668 791.421 668.981 790.508 662.384 789.867C655.786 789.226 648.947 791.191 642.321 790.616C635.696 790.041 629.18 786.04 622.556 785.551C615.933 785.062 609.195 786.831 602.562 786.398C595.929 785.964 589.293 783.166 582.648 782.802C576.001 782.451 569.38 786.717 562.737 786.438C556.095 786.159 549.502 785.689 542.845 785.494C536.189 785.298 529.529 783.137 522.879 782.999C516.229 782.862 509.522 780.978 502.875 780.926C496.228 780.874 489.581 780.423 482.922 780.441C476.262 780.458 469.809 782.147 463.155 782.237C456.569 782.323 449.793 781.04 443.143 781.201C436.493 781.362 430.165 783.713 423.522 783.933C416.879 784.152 410.085 782.281 403.43 782.57L403.416 782.653Z" fill="white"/>
</svg>
