<svg width="47" height="47" viewBox="0 0 47 47" fill="none" xmlns="http://www.w3.org/2000/svg">
<path d="M16.4624 18.1693L18.3465 16.2852L20.2306 18.1693C20.8264 18.765 21.1253 19.0639 21.2819 19.4422C21.4386 19.8205 21.4386 20.2431 21.4386 21.0851V33.8071H19.3772C17.4333 33.8071 16.4624 33.8071 15.8584 33.2031C15.2544 32.5991 15.2544 31.6282 15.2544 29.6843V21.0851C15.2544 20.242 15.2544 19.8215 15.4111 19.4422C15.5677 19.0639 15.8666 18.765 16.4624 18.1693Z" stroke="black" stroke-width="1.54605" stroke-linecap="round" stroke-linejoin="round"/>
<path d="M18.3464 16.2892V15.8769C18.3464 14.6154 18.3464 13.9846 18.7381 13.5929C19.1318 13.2012 19.7626 13.2012 21.0263 13.2012H26.7508C27.4785 13.2012 28.4226 13.0848 28.9101 13.7475C29.4265 14.4525 28.9853 15.4214 29.209 16.2006C29.277 16.4376 29.4461 16.6201 29.6007 16.8056L31.7456 19.3772M31.7456 19.3772H21.4385M31.7456 19.3772V29.6842C31.7456 31.6281 31.7456 32.599 31.1416 33.203C30.5376 33.807 29.5667 33.807 27.6228 33.807H21.4385" stroke="black" stroke-width="1.54605" stroke-linecap="round" stroke-linejoin="round"/>
<path d="M21.4385 24.531C21.9291 25.0464 23.235 25.0216 24.0018 24.8186C24.269 24.7446 24.5523 24.7526 24.8148 24.8418C25.0773 24.931 25.3069 25.097 25.4737 25.3185L26.1828 26.2482C26.5899 26.7831 27.2073 27.0366 27.8154 26.9191L28.7121 26.747C29.2048 26.6522 29.6954 26.8913 30.0314 27.3201C31.0776 28.6538 31.7455 28.6538 31.7455 28.6538" stroke="black" stroke-width="1.54605" stroke-linecap="round" stroke-linejoin="round"/>
<circle cx="23.5" cy="23.5" r="22.8816" stroke="black" stroke-width="1.23684"/>
<path d="M6.98364 40.2178L15.4604 31.7411M40.2177 6.98375L30.233 16.9684" stroke="black" stroke-width="1.23684"/>
</svg>
