<svg width="47" height="47" viewBox="0 0 47 47" fill="none" xmlns="http://www.w3.org/2000/svg">
<circle cx="23.5" cy="23.5" r="22.8816" stroke="black" stroke-width="1.23684"/>
<path d="M6.98367 40.218L14.842 32.7765M40.2177 6.98402L32.1578 14.8422" stroke="black" stroke-width="1.23684"/>
<g clip-path="url(#clip0_8308_1578)">
<path d="M23.4998 11.1313C23.9098 11.1313 24.3031 11.2942 24.593 11.5842C24.8829 11.8741 25.0458 12.2674 25.0458 12.6774V14.845C25.0458 15.635 26.0925 15.9164 26.4883 15.2315L27.5705 13.3546C27.7755 12.9993 28.1133 12.74 28.5095 12.6337C28.9057 12.5274 29.3279 12.5829 29.6832 12.7879C30.0385 12.993 30.2978 13.3307 30.4041 13.7269C30.5103 14.1231 30.4549 14.5453 30.2498 14.9006L29.1661 16.7775C28.7703 17.4624 29.5371 18.2293 30.222 17.8335L32.0989 16.7497C32.4538 16.5479 32.8741 16.4947 33.2681 16.6017C33.6621 16.7086 33.9978 16.9671 34.202 17.3207C34.4061 17.6742 34.4621 18.0942 34.3578 18.4889C34.2534 18.8836 33.9972 19.221 33.645 19.4275L31.7681 20.5112C31.0832 20.907 31.363 21.9537 32.1546 21.9537H34.3221C34.7322 21.9537 35.1254 22.1166 35.4154 22.4065C35.7053 22.6965 35.8682 23.0897 35.8682 23.4998C35.8682 23.9098 35.7053 24.3031 35.4154 24.593C35.1254 24.8829 34.7322 25.0458 34.3221 25.0458H32.1546C31.363 25.0458 31.0832 26.0925 31.7681 26.4883L33.645 27.5721C33.8222 27.6728 33.9778 27.8077 34.1027 27.9688C34.2276 28.13 34.3194 28.3142 34.3729 28.511C34.4263 28.7078 34.4403 28.9132 34.414 29.1154C34.3877 29.3175 34.3217 29.5125 34.2197 29.6891C34.1178 29.8657 33.9819 30.0204 33.8199 30.1442C33.658 30.2681 33.4731 30.3587 33.276 30.4108C33.0789 30.4629 32.8734 30.4755 32.6714 30.4479C32.4694 30.4203 32.2748 30.353 32.0989 30.2498L30.222 29.1676C29.5371 28.7703 28.7703 29.5386 29.1661 30.222L30.2498 32.0989C30.353 32.2748 30.4203 32.4694 30.4479 32.6714C30.4755 32.8734 30.4629 33.0789 30.4108 33.276C30.3587 33.4731 30.2681 33.658 30.1442 33.8199C30.0204 33.9819 29.8657 34.1178 29.6891 34.2197C29.5125 34.3217 29.3175 34.3877 29.1154 34.414C28.9132 34.4403 28.7078 34.4263 28.511 34.3729C28.3142 34.3194 28.13 34.2276 27.9688 34.1027C27.8077 33.9778 27.6728 33.8222 27.5721 33.645L26.4883 31.7681C26.0925 31.0832 25.0458 31.363 25.0458 32.1546V34.3221C25.0458 34.7322 24.8829 35.1254 24.593 35.4154C24.3031 35.7053 23.9098 35.8682 23.4998 35.8682C23.0897 35.8682 22.6965 35.7053 22.4065 35.4154C22.1166 35.1254 21.9537 34.7322 21.9537 34.3221V32.1546C21.9537 31.363 20.907 31.0832 20.5112 31.7681L19.4275 33.645C19.221 33.9972 18.8836 34.2534 18.4889 34.3578C18.0942 34.4621 17.6742 34.4061 17.3207 34.202C16.9671 33.9978 16.7086 33.6621 16.6017 33.2681C16.4947 32.8741 16.5479 32.4538 16.7497 32.0989L17.8319 30.222C18.2293 29.5371 17.4609 28.7703 16.7775 29.1661L14.9006 30.2498C14.7247 30.353 14.5302 30.4203 14.3282 30.4479C14.1261 30.4755 13.9207 30.4629 13.7235 30.4108C13.5264 30.3587 13.3416 30.2681 13.1796 30.1442C13.0176 30.0204 12.8818 29.8657 12.7798 29.6891C12.6779 29.5125 12.6118 29.3175 12.5856 29.1154C12.5593 28.9132 12.5733 28.7078 12.6267 28.511C12.6801 28.3142 12.7719 28.13 12.8968 27.9688C13.0218 27.8077 13.1773 27.6728 13.3546 27.5721L15.2315 26.4883C15.9164 26.0925 15.635 25.0458 14.845 25.0458H12.6774C12.2674 25.0458 11.8741 24.8829 11.5842 24.593C11.2942 24.3031 11.1313 23.9098 11.1313 23.4998C11.1313 23.0897 11.2942 22.6965 11.5842 22.4065C11.8741 22.1166 12.2674 21.9537 12.6774 21.9537H14.845C15.635 21.9537 15.9164 20.907 15.2315 20.5112L13.3546 19.4275C13.1773 19.3267 13.0218 19.1919 12.8968 19.0307C12.7719 18.8696 12.6801 18.6853 12.6267 18.4885C12.5733 18.2918 12.5593 18.0864 12.5856 17.8842C12.6118 17.682 12.6779 17.487 12.7798 17.3104C12.8818 17.1338 13.0176 16.9792 13.1796 16.8553C13.3416 16.7315 13.5264 16.6409 13.7235 16.5888C13.9207 16.5366 14.1261 16.524 14.3282 16.5517C14.5302 16.5793 14.7247 16.6466 14.9006 16.7497L16.7775 17.8335C17.4624 18.2293 18.2293 17.4624 17.8335 16.7775L16.7497 14.9006C16.5479 14.5457 16.4947 14.1254 16.6017 13.7314C16.7086 13.3374 16.9671 13.0017 17.3207 12.7976C17.6742 12.5934 18.0942 12.5374 18.4889 12.6418C18.8836 12.7461 19.221 13.0024 19.4275 13.3546L20.5112 15.2315C20.907 15.9164 21.9537 15.635 21.9537 14.845V12.6774C21.9537 12.2674 22.1166 11.8741 22.4065 11.5842C22.6965 11.2942 23.0897 11.1313 23.4998 11.1313ZM26.5919 18.8616C26.5919 18.4516 26.429 18.0583 26.139 17.7684C25.8491 17.4784 25.4559 17.3156 25.0458 17.3156C24.6358 17.3156 24.2425 17.4784 23.9526 17.7684C23.6627 18.0583 23.4998 18.4516 23.4998 18.8616C23.4998 19.2716 23.6627 19.6649 23.9526 19.9548C24.2425 20.2448 24.6358 20.4077 25.0458 20.4077C25.4559 20.4077 25.8491 20.2448 26.139 19.9548C26.429 19.6649 26.5919 19.2716 26.5919 18.8616ZM20.4077 21.9537C20.4077 21.5437 20.2448 21.1504 19.9548 20.8605C19.6649 20.5706 19.2716 20.4077 18.8616 20.4077C18.4516 20.4077 18.0583 20.5706 17.7684 20.8605C17.4784 21.1504 17.3156 21.5437 17.3156 21.9537C17.3156 22.3638 17.4784 22.757 17.7684 23.0469C18.0583 23.3369 18.4516 23.4998 18.8616 23.4998C19.2716 23.4998 19.6649 23.3369 19.9548 23.0469C20.2448 22.757 20.4077 22.3638 20.4077 21.9537ZM21.9537 28.1379C22.3638 28.1379 22.757 27.975 23.0469 27.6851C23.3369 27.3952 23.4998 27.0019 23.4998 26.5919C23.4998 26.1818 23.3369 25.7886 23.0469 25.4986C22.757 25.2087 22.3638 25.0458 21.9537 25.0458C21.5437 25.0458 21.1504 25.2087 20.8605 25.4986C20.5706 25.7886 20.4077 26.1818 20.4077 26.5919C20.4077 27.0019 20.5706 27.3952 20.8605 27.6851C21.1504 27.975 21.5437 28.1379 21.9537 28.1379ZM29.684 23.4998C29.684 23.0897 29.5211 22.6965 29.2311 22.4065C28.9412 22.1166 28.548 21.9537 28.1379 21.9537C27.7279 21.9537 27.3346 22.1166 27.0447 22.4065C26.7548 22.6965 26.5919 23.0897 26.5919 23.4998C26.5919 23.9098 26.7548 24.3031 27.0447 24.593C27.3346 24.8829 27.7279 25.0458 28.1379 25.0458C28.548 25.0458 28.9412 24.8829 29.2311 24.593C29.5211 24.3031 29.684 23.9098 29.684 23.4998Z" fill="black"/>
</g>
<defs>
<clipPath id="clip0_8308_1578">
<rect width="24.7368" height="24.7368" fill="white" transform="translate(11.1313 11.1313)"/>
</clipPath>
</defs>
</svg>
