<svg width="48" height="48" viewBox="0 0 48 48" fill="none" xmlns="http://www.w3.org/2000/svg">
<circle cx="24.165" cy="23.9023" r="22.8816" stroke="black" stroke-width="1.23684"/>
<g clip-path="url(#clip0_8308_1575)">
<path fill-rule="evenodd" clip-rule="evenodd" d="M54.0132 17.705C54.0488 18.0075 53.9629 18.3116 53.7742 18.5507C53.5856 18.7897 53.3097 18.9441 53.0073 18.9797C43.2322 20.1304 35.8848 21.2467 29.7719 28.8926C28.1642 30.9023 26.9412 32.3757 25.9294 33.4379C24.9188 34.499 24.0553 35.2214 23.148 35.6681C22.2132 36.1275 21.3255 36.2492 20.3655 36.2687C19.8628 36.2737 19.36 36.2664 18.8577 36.2469H18.8416C18.2404 36.2265 17.639 36.2154 17.0375 36.2136C13.7106 36.2136 11.4597 34.1545 10.1081 32.2953C9.28223 31.1486 8.62337 29.8904 8.15124 28.5584L8.14434 28.5366L8.14205 28.5297V28.5274C8.14205 28.5274 8.13975 28.5251 9.23416 28.1749L8.1409 28.5251C8.08576 28.353 8.07205 28.1702 8.10088 27.9917C8.12971 27.8133 8.20027 27.6441 8.30681 27.4981C8.41336 27.352 8.55288 27.2332 8.71402 27.1512C8.87517 27.0693 9.05338 27.0265 9.23416 27.0265H28.3296C35.0189 18.9683 43.1598 17.8256 52.7385 16.699C53.041 16.6634 53.3452 16.7494 53.5842 16.9381C53.8232 17.1267 53.9776 17.4026 54.0132 17.705ZM26.4669 29.3233H10.9763C11.2301 29.8182 11.5585 30.3832 11.9673 30.9448C13.1192 32.5307 14.7694 33.9168 17.0375 33.9168C17.746 33.9168 18.3638 33.9352 18.9013 33.9513H18.922C19.472 33.9673 19.9188 33.98 20.3195 33.9719C21.0982 33.957 21.6138 33.864 22.134 33.6079C22.6829 33.3369 23.3283 32.8396 24.2654 31.8543C24.8809 31.2089 25.5941 30.3844 26.4669 29.3233Z" fill="black"/>
<path d="M9.23413 22.4335H11.5309V24.7303H9.23413V22.4335ZM18.4212 22.4335H20.718V24.7303H18.4212V22.4335ZM14.9761 21.9581L16.5999 23.5819L14.9761 25.2057L13.3522 23.5819L14.9761 21.9581ZM24.1632 21.9581L25.787 23.5819L24.1632 25.2057L22.5393 23.5819L24.1632 21.9581ZM16.1245 17.84H18.4212V20.1368H16.1245V17.84ZM12.6793 17.3645L14.3031 18.9884L12.6793 20.6122L11.0555 18.9884L12.6793 17.3645ZM17.2728 12.771L18.8967 14.3948L17.2728 16.0186L15.649 14.3948L17.2728 12.771ZM21.8664 17.3645L23.4902 18.9884L21.8664 20.6122L20.2426 18.9884L21.8664 17.3645Z" fill="black"/>
</g>
<defs>
<clipPath id="clip0_8308_1575">
<rect width="38.3421" height="23.5" fill="white" transform="translate(8.08618 12.771)"/>
</clipPath>
</defs>
</svg>
