<svg width="63" height="55" viewBox="0 0 63 55" fill="none" xmlns="http://www.w3.org/2000/svg">
<g clip-path="url(#clip0_8308_747)">
<path d="M29.8706 3.93513C29.9969 3.92871 30.1166 3.94155 30.2234 3.91267C31.0778 3.68478 31.6991 3.95439 32.2072 4.67976C32.5826 5.21577 33.0875 5.63302 33.7994 5.72289C34.2525 5.78066 34.5438 6.05669 34.7347 6.48036C35.0325 7.15117 35.4952 7.71285 36.0066 8.23923C36.7833 9.03842 37.5567 9.83441 38.3011 10.6657C38.7315 11.1439 39.0907 11.6831 39.4791 12.1903C39.7121 12.1582 39.6797 11.9816 39.6862 11.8436C39.7994 8.96139 40.2978 6.14977 41.2234 3.41517C41.3561 3.02039 41.5373 2.63203 41.7638 2.28539C42.0842 1.79432 42.6862 1.79432 43.0098 2.26613C43.1813 2.51327 43.2978 2.80535 43.4143 3.08458C44.0907 4.71186 44.7444 6.34556 44.8512 8.13331C44.8609 8.31626 44.9289 8.49921 45.0033 8.83622C45.2072 8.55056 45.3431 8.3965 45.437 8.21997C46.3237 6.56702 47.1457 4.88197 48.2072 3.32531C48.8124 2.43945 49.3852 1.53434 49.9839 0.645275C50.1101 0.459117 50.2622 0.276169 50.437 0.134946C50.7574 -0.125033 51.2622 0.01619 51.3852 0.407763C51.4629 0.658113 51.5082 0.93735 51.4855 1.19412C51.4402 1.72692 51.3399 2.25329 51.2655 2.78288C50.971 4.93974 50.6538 7.09661 50.0972 9.20532C50.0745 9.29519 50.1231 9.40432 50.1587 9.61616C50.3723 9.38506 50.5308 9.231 50.6668 9.05768C52.2752 7.03883 54.1328 5.26712 56.136 3.63985C56.2558 3.54356 56.3723 3.44406 56.505 3.36382C56.9516 3.08779 57.4694 3.29321 57.56 3.80996C57.5988 4.025 57.5632 4.26251 57.5211 4.48398C57.3237 5.45649 57.1263 6.43221 56.8998 7.39831C56.4823 9.1957 55.7444 10.8775 54.9224 12.5241C54.7865 12.7969 54.6376 13.0633 54.5017 13.3168C54.6506 13.5383 54.7833 13.4163 54.8933 13.3329C55.2299 13.0761 55.5567 12.8097 55.8868 12.5433C57.547 11.2081 59.4014 10.2035 61.3626 9.38185C61.6409 9.2631 61.9418 9.1636 62.2396 9.12508C62.6603 9.07052 62.9904 9.44926 62.8998 9.85367C62.8577 10.0366 62.7703 10.2131 62.6927 10.3865C61.916 12.0683 60.8448 13.5608 59.67 14.9826C59.1328 15.631 58.5438 16.2376 57.9807 16.8667C57.8577 17.0015 57.7509 17.1523 57.5794 17.3674C57.8318 17.3674 57.9871 17.4027 58.1198 17.361C59.2363 17.0272 60.3852 16.9116 61.5406 16.8442C61.8771 16.825 62.2331 16.8603 62.56 16.9469C62.916 17.04 63.1069 17.454 62.9451 17.775C62.7736 18.112 62.5567 18.4362 62.3011 18.7122C60.9289 20.179 59.3917 21.4404 57.5761 22.3455C56.7865 22.7371 56.0066 23.1479 55.1651 23.578C55.2752 23.8508 55.3593 24.0883 55.4629 24.3194C55.9451 25.4011 56.4952 26.457 56.8933 27.5643C57.2266 28.4919 57.4758 29.4709 57.6053 30.4466C57.8804 32.536 57.8674 34.6319 57.5632 36.7278C57.2007 39.2313 56.2493 41.5165 54.9936 43.6798C53.6797 45.949 52.026 47.9775 49.9872 49.6433C47.8124 51.4246 45.4629 52.9171 42.7088 53.742C41.0778 54.2298 39.4402 54.6022 37.7638 54.8557C36.5729 55.0355 35.3917 55.0579 34.1975 54.8686C33.4758 54.753 32.7412 54.7209 32.0195 54.5989C29.8156 54.233 27.8221 53.3665 26.0292 52.0473C25.5664 51.7071 25.0972 51.3733 24.6603 51.0555C24.5017 51.0555 24.3787 51.0266 24.2752 51.0587C22.8124 51.5209 21.2914 51.3251 19.8027 51.4567C19.7282 51.4632 19.6441 51.4632 19.5729 51.4407C18.3528 51.0973 17.0616 51.0684 15.8803 50.5548C14.7897 50.0798 13.6862 49.6369 12.5858 49.1811C12.5147 49.1522 12.4435 49.1201 12.3787 49.0816C10.8092 48.1187 9.23957 47.1591 7.67646 46.1897C7.24928 45.9234 6.86417 45.6441 6.83828 45.0439C6.82857 44.8289 6.5729 44.5914 6.37873 44.418C5.89006 43.9751 5.45963 43.5097 5.18455 42.8935C5.03245 42.5533 4.73795 42.2772 4.50494 41.9755C4.22339 41.6128 3.89653 41.2758 3.66675 40.8842C3.47582 40.5665 3.31724 40.191 3.28488 39.8283C3.22015 39.1254 2.98714 38.4899 2.67646 37.8704C2.40138 37.3248 2.22662 36.7503 2.05834 36.1597C1.62468 34.6512 1.28164 33.1234 0.945071 31.5956C0.864165 31.2265 0.702353 30.8702 0.543776 30.5268C0.165136 29.7052 -0.0387478 28.8771 0.213679 27.972C0.281641 27.7312 0.255751 27.4392 0.197498 27.1888C-0.0840553 25.9403 -0.00638539 24.6789 0.0842295 23.4239C0.110119 23.0966 0.242806 22.7435 0.430508 22.4707C0.74766 22.0053 0.870637 21.5046 0.919181 20.9654C0.951543 20.6219 0.967725 20.2689 1.07128 19.9479C1.17484 19.6302 1.32048 19.2803 1.55349 19.0524C2.07776 18.5485 2.35931 17.9451 2.50494 17.2647C2.66028 16.5297 3.00656 15.9487 3.55996 15.4095C4.0454 14.9409 4.36578 14.3022 4.74442 13.7277C5.0551 13.2527 5.25252 12.6845 5.89006 12.5048C5.98714 12.4759 6.07129 12.3668 6.13925 12.2769C6.72501 11.5195 7.30753 10.762 7.88682 9.9981C8.32695 9.41716 8.78973 8.85548 9.18455 8.24565C10.1587 6.73713 11.246 5.29922 12.1198 3.72651C12.2299 3.52751 12.3108 3.30284 12.4499 3.12631C12.7865 2.70585 13.2007 2.49722 13.7703 2.67054C14.246 2.81498 14.738 3.00434 15.2234 3.00113C16.8415 2.98509 18.4532 3.10063 20.0681 3.17124C20.7444 3.20013 21.4499 3.22581 22.1263 2.99792C22.3334 2.92731 22.6085 2.90485 22.8059 2.98188C23.7606 3.35098 24.7865 3.20334 25.7638 3.40876C26.7088 3.61096 27.6732 3.66552 28.6279 3.45048C29.1587 3.33172 29.4758 3.73614 29.8706 3.93513ZM11.67 6.81416C11.4726 7.1287 11.3172 7.34696 11.191 7.57805C10.8253 8.25528 10.4046 8.89078 9.86417 9.44605C9.70559 9.60974 9.55996 9.79589 9.44345 9.99168C8.49847 11.5772 7.22663 12.9253 6.1619 14.4242C6.00656 14.6424 5.84151 14.8575 5.65381 15.05C5.00009 15.7176 4.51141 16.4944 4.10688 17.3224C3.67323 18.2147 3.27193 19.1198 2.87064 20.0249C2.66999 20.4775 2.45316 20.9333 2.32048 21.4083C1.57938 24.0562 1.33666 26.7363 1.86417 29.4548C2.09717 30.6552 2.36902 31.846 2.59556 33.0496C2.88682 34.5998 3.40138 36.0762 4.06481 37.5013C5.24928 40.0562 6.85446 42.3254 8.68294 44.4726C9.87711 45.8752 11.3302 46.9376 12.8771 47.8491C14.191 48.6226 15.6506 49.1651 17.1198 49.6305C17.4726 49.7428 17.8286 49.8198 18.2363 49.6882C17.7994 49.2196 17.3949 48.8152 17.0325 48.3819C16.7282 48.0192 16.3884 47.8844 15.9159 47.9903C15.6214 48.0577 15.3075 48.0738 15.0033 48.0513C14.1651 47.9903 13.8059 47.281 13.3334 46.7514C13.1036 46.4947 13.4208 46.0228 13.78 46.0132C14.1101 46.0036 14.4079 46.1095 14.5923 46.3727C14.9095 46.8285 15.3302 46.8702 15.8189 46.7675C15.9321 46.745 16.0486 46.7418 16.1619 46.7258C16.8739 46.6327 17.4402 46.8927 17.903 47.419C18.1813 47.7336 18.4596 48.0545 18.7606 48.3498C19.492 49.0624 19.3205 49.2036 18.7606 49.7428C18.7444 49.7588 18.7703 49.8166 18.78 49.884C19.1425 50.0605 19.5276 50.2082 19.9613 50.1761C21.0519 50.0894 22.1684 50.2178 23.3334 49.8936C23.2072 49.6882 23.1457 49.5566 23.0551 49.4507C22.2558 48.5199 21.4467 47.5956 20.6506 46.6616C19.3787 45.1659 18.2719 43.5579 17.3755 41.815C17.081 41.2437 16.8803 40.6179 16.6732 40.008C16.5405 39.6132 16.4758 39.196 16.369 38.7884C16.1004 37.7356 16.2655 37.3023 17.1716 36.6572C17.2299 36.6155 17.2687 36.5448 17.3367 36.4582C17.2978 36.1436 17.2299 35.8066 17.2299 35.4664C17.2299 35.2514 17.2655 34.9465 17.4079 34.8341C17.971 34.388 18.0972 33.7525 18.2719 33.133C18.3787 32.7575 18.5147 32.4109 18.8771 32.1958C19.3043 31.9423 19.492 31.5475 19.5794 31.0692C19.6732 30.5653 19.9807 30.1673 20.3561 29.8239C21.149 29.105 21.9386 28.3828 22.793 27.6061C22.7736 27.2851 22.7736 26.9032 22.7153 26.534C22.6797 26.2997 22.5082 26.1264 22.2396 26.1104C22.1263 26.104 22.0098 26.1072 21.8933 26.1168C21.2007 26.1778 20.7768 25.8023 20.5956 25.2085C20.4435 24.7046 20.2752 24.13 20.3787 23.6454C20.5567 22.8237 20.4499 22.0663 20.2816 21.2767C20.1878 20.8338 20.191 20.3652 20.1781 19.9062C20.1684 19.4472 20.1975 18.9882 20.2007 18.5293C20.2072 17.7878 19.9904 17.1812 19.2363 16.8635C18.7412 16.6548 18.4564 16.2536 18.3399 15.7369C18.2558 15.3646 18.1522 14.9955 18.1036 14.6167C17.9418 13.3778 17.5082 12.2513 16.7897 11.2274C16.5503 10.884 16.314 10.5245 16.1522 10.1393C16.0227 9.8312 15.9645 9.47814 15.9548 9.14434C15.9451 8.79128 16.2007 8.5281 16.4855 8.48637C16.78 8.44144 17.0227 8.62117 17.1619 8.99028C17.2816 9.30803 17.3367 9.67393 17.5276 9.94354C18.5923 11.4424 19.2946 13.0697 19.4791 14.9056C19.5244 15.3582 19.7282 15.6567 20.1587 15.8813C20.9677 16.305 21.3561 17.0496 21.4596 17.9291C21.5049 18.3078 21.5082 18.693 21.4791 19.0717C21.4046 19.9961 21.4952 20.9044 21.7315 21.7999C21.8804 22.368 21.9418 22.9136 21.7218 23.4849C21.5632 23.8893 21.6053 24.3066 21.7994 24.6051C22.3431 24.8041 22.8318 24.9228 23.2558 25.1571C23.7347 25.4235 23.8383 25.998 24.0778 26.5469C24.3108 26.3254 24.4985 26.1906 24.6247 26.0109C25.0454 25.4203 25.5017 24.8618 25.8027 24.1846C26.1263 23.4528 26.4888 23.3373 27.2946 23.517C27.4435 23.5491 27.5923 23.6005 27.7444 23.6133C27.9062 23.6261 28.0454 23.5748 28.0519 23.3758C28.0098 23.318 27.9774 23.2474 27.9224 23.2057C27.8642 23.1607 27.7768 23.1511 27.7153 23.1094C26.8609 22.5445 26.2007 21.8191 25.8124 20.8627C25.5535 20.2239 25.2946 19.5916 24.8448 19.0492C24.6279 18.7892 24.6732 18.5421 24.8836 18.3303C25.1166 18.096 25.4337 18.0735 25.7024 18.3495C25.9904 18.648 26.3011 18.9754 26.4499 19.3477C26.916 20.5128 27.6312 21.4789 28.5794 22.2909C28.6376 22.3391 28.6959 22.3872 28.7671 22.445C29.4661 22.3327 30.204 22.3038 30.78 21.7774C30.8577 21.7036 30.9969 21.6972 31.1004 21.649C31.5826 21.4147 32.0648 21.1772 32.5405 20.9333C32.7444 20.8274 32.9257 20.6508 33.1393 20.5963C33.7121 20.4454 34.191 20.163 34.6441 19.7874C34.835 19.6302 35.1295 19.5403 35.382 19.5275C36.3723 19.4825 36.3723 19.4986 37.1943 18.8181C37.0616 18.6801 36.9354 18.5389 36.7962 18.4105C35.7638 17.4605 34.9774 16.3307 34.4402 15.0436C34.013 14.0198 33.6506 12.9734 33.2655 11.9335C33.2137 11.7923 33.1846 11.6382 33.1684 11.4874C33.1198 10.9995 33.4629 10.6657 33.9483 10.7588C34.2493 10.8166 34.5405 10.9225 34.8286 11.0316C35.9321 11.4488 36.9969 11.9399 38.0583 12.7391C37.9807 12.4759 37.9742 12.3604 37.9192 12.2801C37.7444 12.0298 37.5697 11.7762 37.3626 11.5516C36.6603 10.7909 35.971 10.0141 35.2234 9.2984C33.8415 7.96641 32.4111 6.68577 30.5405 6.03743C30.2137 5.9251 29.8836 5.81597 29.56 5.69721C28.3237 5.25429 27.0292 5.04887 25.7541 4.76321C25.0681 4.60915 24.3917 4.5578 23.6959 4.54175C22.1198 4.50644 20.5438 4.41658 18.9645 4.37485C17.8901 4.34917 16.8124 4.36843 15.7736 4.36843C15.5405 4.58669 15.3367 4.80494 15.1036 4.98468C14.8965 5.14195 14.67 5.31527 14.424 5.37304C14.1522 5.44044 13.8512 5.38909 13.5405 5.38909C13.4532 5.62018 13.3787 5.83523 13.2946 6.04385C13.1781 6.3263 13.081 6.61837 12.9257 6.87835C12.7282 7.20573 12.424 7.25388 12.0325 7.06451C11.9321 7.01637 11.848 6.93292 11.6668 6.80453L11.67 6.81416ZM46.4402 36.3202C46.3464 36.6636 46.2493 36.8819 46.2299 37.1065C46.1619 37.8319 45.7282 38.2877 45.1295 38.6215C44.6603 38.8847 44.1716 39.1125 43.6991 39.3693C42.4532 40.0498 41.1716 40.6788 39.9807 41.4427C39.2816 41.8889 38.6053 42.136 37.8156 41.9242C37.3723 41.8054 36.9742 41.8696 36.5794 42.0301C36.1166 42.2162 35.6668 42.4345 35.2137 42.6431C34.725 42.8646 34.2428 43.1021 33.7477 43.3107C33.1263 43.5739 32.4855 43.6477 31.835 43.3974C31.4596 43.2529 31.1069 43.2529 30.725 43.4423C29.8933 43.8499 29.0195 43.8628 28.1392 43.5835C27.9289 43.5161 27.7153 43.4648 27.5147 43.4102C27.3334 43.6541 27.2137 43.8499 27.0583 44.0168C26.5567 44.5528 26.0422 44.6235 25.4014 44.2576C25.2687 44.1837 25.1619 44.0586 25.026 43.9944C24.8286 43.8981 24.6117 43.7601 24.4046 43.7697C23.8124 43.7922 23.2493 43.7023 22.7185 43.4552C22.4111 43.3107 22.1425 43.3364 21.8415 43.484C21.369 43.7119 20.8739 43.8981 20.3399 44.1195C20.437 44.2576 20.5341 44.418 20.6538 44.5593C21.5276 45.6281 22.3917 46.7033 23.2881 47.7528C24.3367 48.9789 25.4791 50.1055 26.8189 51.0363C28.3528 52.1019 29.9904 52.9235 31.8415 53.2381C33.1295 53.4563 34.4338 53.5687 35.7315 53.7131C35.9483 53.7388 36.1748 53.6842 36.3949 53.6682C36.424 53.4274 36.4337 53.2381 36.4726 53.0519C36.5179 52.8401 36.6829 52.7053 36.8804 52.7149C37.0519 52.7245 37.2752 52.7919 37.3755 52.9171C37.5082 53.0808 37.5438 53.3215 37.6215 53.5301C39.9289 53.3825 42.0486 52.5737 44.191 51.8547C44.6991 51.6846 45.0519 51.3669 45.2752 50.8918C45.3561 50.7185 45.4402 50.5452 45.5438 50.3847C45.9742 49.7203 45.9257 49.0335 45.6376 48.3402C45.5049 48.0256 45.3302 47.7304 45.1943 47.464C44.0939 47.1237 43.9742 46.9857 43.8804 45.9619C43.8609 45.734 43.8706 45.5029 43.8512 45.275C43.8221 44.9765 43.7768 44.6812 43.738 44.3795C43.4046 44.2479 43.1166 44.1452 42.8383 44.02C42.5438 43.8884 42.3205 43.6638 42.2525 43.3524C42.1198 42.7426 42.136 42.136 42.437 41.5679C42.5794 41.3015 42.8383 41.1924 43.1134 41.2758C43.3723 41.3561 43.4823 41.5615 43.4791 41.799C43.4726 42.1328 43.4176 42.4698 43.382 42.7811C44.9807 43.5739 44.9872 43.5835 45.259 45.7725C46.4661 46.408 46.7962 47.6052 47.1231 48.7735C47.204 49.0656 47.0325 49.4347 46.9548 49.7653C46.9224 49.9001 46.7412 49.9964 46.8933 50.2274C47.492 49.9225 48.1198 49.6818 48.2752 48.8955C48.327 48.6355 48.4661 48.3948 48.5405 48.1412C48.8998 46.928 49.1328 45.6955 49.1295 44.4245C49.1295 43.8403 48.9483 43.3781 48.3917 43.1117C48.2881 43.0636 48.1943 42.993 48.0939 42.9352C47.4985 42.6046 47.2007 42.1232 47.2881 41.4235C47.3205 41.1667 47.2946 40.9035 47.2946 40.6564C47.0972 40.5376 46.9224 40.451 46.7703 40.3354C46.5341 40.1589 46.4338 39.9182 46.547 39.6325C46.6571 39.3565 46.8739 39.2217 47.1781 39.2249C48.1328 39.2313 48.6668 39.7577 48.6862 40.7238C48.6927 41.0608 48.6862 41.3978 48.6862 41.6674C48.7897 41.7797 48.8286 41.86 48.8933 41.8889C50.1716 42.4762 50.5179 43.5514 50.4143 44.8289C50.3593 45.5125 50.2266 46.1865 50.1295 46.867C50.0939 47.1077 50.0066 47.3548 50.1813 47.663C51.0163 46.9119 51.7121 46.1641 52.2169 45.4355C52.3108 44.2158 52.3982 43.131 52.4823 42.0461C52.3043 41.7573 52.0486 41.4877 51.971 41.1763C51.8804 40.8233 51.9516 40.4285 51.9516 39.9856C51.4855 39.7545 51.3302 39.2891 51.3075 38.7723C51.2881 38.3262 51.1263 37.9763 50.8092 37.6586C50.6279 37.4756 50.5179 37.2124 50.4111 36.9685C50.3528 36.8369 50.3431 36.6668 50.3626 36.5224C50.3982 36.2399 50.5503 36.0249 50.8448 35.9414C51.1004 35.8708 51.3496 35.98 51.5179 36.2528C51.6571 36.4774 51.7444 36.7535 51.9289 36.9332C52.3043 37.3023 52.5308 37.726 52.5859 38.2363C52.615 38.522 52.7153 38.737 52.9548 38.9071C53.2622 39.1254 53.3658 39.4624 53.3528 39.8154C53.3302 40.3547 53.3431 40.8522 53.6959 41.3272C53.8512 41.539 53.78 41.9113 53.8124 42.213C53.8318 42.3767 53.6862 42.5886 54.0066 42.7169C54.6506 41.8182 54.9904 40.7815 55.3917 39.793C54.93 39.4014 54.6905 38.9456 54.6732 38.4257C54.6668 38.1978 54.67 37.9667 54.6732 37.7388C54.7056 36.6508 54.5017 35.6044 54.0422 34.6223C53.7865 34.0702 53.4499 33.5535 53.1587 33.0175C52.9839 32.6997 53.0325 32.337 53.2752 32.1894C53.5308 32.0321 53.8124 32.0353 54.0292 32.2279C54.2816 32.4526 54.5341 32.7061 54.7024 32.9982C55.3593 34.1376 55.793 35.3573 55.8674 36.6829C55.8836 36.9846 55.9127 37.2863 55.9386 37.5848C56.3723 36.3651 56.4758 35.1101 56.5082 33.8584C56.5341 32.9469 56.4208 32.0289 56.3496 31.1174C56.2525 29.8945 56.013 28.7038 55.4952 27.574C55.3367 27.2305 55.2558 26.8486 55.1263 26.4923C55.0681 26.3351 55.0454 26.1136 54.7638 26.1425C54.5859 26.4763 54.4435 26.8358 54.2234 27.1407C53.9742 27.4873 54.0875 27.8853 53.971 28.2416C53.9127 28.4213 53.8059 28.5818 53.7153 28.7487C53.4014 29.3168 53.1004 29.8881 52.7703 30.4466C52.5373 30.8381 52.327 31.2682 52.0033 31.5699C51.5179 32.0225 51.0778 32.4622 50.9095 33.1362C50.8092 33.5406 50.4661 33.7396 50.026 33.7268C49.7283 33.7172 49.4305 33.7268 49.1651 33.7268C49.0681 33.9033 48.9936 33.9964 48.9613 34.1023C48.8512 34.4682 48.7574 34.8373 48.6571 35.2064C48.4143 36.0955 48.0227 36.3876 47.081 36.3812C46.8933 36.3812 46.7088 36.3491 46.4532 36.3266L46.4402 36.3202ZM47.1134 34.7475C47.1781 34.6608 47.2655 34.5774 47.314 34.4746C47.4952 34.0959 47.6797 33.7204 47.835 33.3288C48.0486 32.7864 48.4014 32.4012 49.0033 32.3563C49.5244 32.3146 49.8383 32.0289 50.1134 31.6373C50.3561 31.2939 50.615 30.9601 50.8965 30.6456C51.6279 29.8303 52.013 28.8225 52.4694 27.866C52.7444 27.2883 52.8674 26.64 53.0519 26.0205C53.0842 25.9114 53.1069 25.7894 53.0875 25.6803C52.9289 24.8554 52.7897 24.0273 52.5794 23.2185C52.4855 22.859 52.2558 22.5381 51.9354 22.2909C51.602 22.0342 51.3043 21.7325 51.0033 21.4372C50.4694 20.914 49.8383 20.5706 49.1166 20.378C48.8577 20.3106 48.5859 20.2592 48.3431 20.1501C47.1846 19.6237 45.9742 19.5788 44.7283 19.6976C44.1554 19.7521 43.5761 19.7072 43.0001 19.7072C42.7703 19.7072 42.5341 19.6687 42.314 19.7136C41.2266 19.9319 40.1004 19.9961 39.0778 20.4968C38.8383 20.6123 38.5697 20.6797 38.3075 20.7343C37.2849 20.9557 36.3205 21.3248 35.3723 21.7517C33.9742 22.3808 32.6927 23.2217 31.2816 23.8444C30.2784 24.2841 29.4014 25.0287 28.5114 25.6995C26.4564 27.2466 24.5729 28.999 22.6376 30.6841C22.3205 30.9601 22.026 31.265 21.7509 31.586C21.4791 31.9037 21.1975 32.2311 21.0033 32.6002C20.1554 34.2275 19.3237 35.858 18.8965 37.665C18.6959 38.5091 18.848 39.2538 19.3172 39.9503C19.4176 40.1011 19.5859 40.2744 19.7444 40.3033C20.5859 40.4477 21.0907 40.987 21.4208 41.6481C22.0486 41.7958 22.6344 41.8664 23.1651 42.0718C24.0972 42.4313 25.0842 42.0622 26.0163 42.3543C26.1295 42.3896 26.3011 42.2676 26.437 42.2002C27.0163 41.9017 27.5826 41.8632 28.2104 42.1135C28.9613 42.4152 29.7671 42.3703 30.4143 41.8921C31.0033 41.4588 31.5147 41.4331 32.1166 41.7573C32.547 41.9884 33.0066 42.0237 33.4564 41.8343C34.2363 41.5069 35.0389 41.218 35.7638 40.7944C36.2914 40.4863 36.7768 40.329 37.3852 40.3739C38.2622 40.4381 39.4758 39.8604 39.9969 39.1799C40.5147 38.5091 41.1878 38.124 42.026 38.0502C42.5923 38.002 43.0713 37.848 43.4143 37.3633C43.4952 37.2478 43.6506 37.1258 43.7833 37.1129C44.4661 37.0455 44.7509 36.5577 45.0163 36.0377C45.1393 35.8002 45.2752 35.5691 45.4014 35.3348C45.6894 34.7892 46.1134 34.5549 46.7347 34.7443C46.8027 34.7667 46.8868 34.7443 47.1166 34.7443L47.1134 34.7475ZM47.7477 17.8841C48.0066 17.9804 48.1457 18.0414 48.2914 18.0831C48.8189 18.234 49.2784 18.1569 49.6182 17.6883C49.6862 17.5953 49.78 17.5247 49.8545 17.438C51.1425 15.968 52.3367 14.4306 53.3108 12.7295C54.437 10.7588 55.3011 8.69179 55.78 6.47394C55.8253 6.26211 55.8156 6.03743 55.8415 5.69721C55.5923 5.8609 55.4208 5.94114 55.2914 6.06311C53.5956 7.62619 52.0227 9.29519 50.6829 11.1696C49.4046 12.9574 48.4208 14.8896 47.8868 17.0272C47.8253 17.2775 47.8059 17.5407 47.7541 17.8873L47.7477 17.8841ZM42.3593 4.33954C42.2622 4.56743 42.191 4.6926 42.1522 4.82741C41.2687 7.77704 40.8415 10.7845 41.0875 13.8625C41.1651 14.8478 41.3496 15.8236 41.7444 16.7511C41.9807 17.3096 42.3528 17.5856 42.9548 17.5439C43.0001 17.454 43.0583 17.3898 43.0583 17.3289C43.0551 15.6406 43.3043 13.9877 43.7865 12.3668C43.8609 12.1197 43.8674 11.8404 43.848 11.5772C43.7736 10.5502 43.6797 9.52629 43.5891 8.49921C43.4726 7.19931 43.2104 5.93472 42.6668 4.74075C42.6117 4.61878 42.5017 4.51928 42.3626 4.33954H42.3593ZM49.6409 3.61738C49.5276 3.7586 49.4079 3.89341 49.3043 4.04105C48.3367 5.4244 47.5988 6.93933 46.8027 8.41897C45.56 10.7331 44.7606 13.1885 44.3658 15.7754C44.314 16.1156 44.2849 16.4591 44.2816 16.8025C44.2752 17.1299 44.314 17.4573 44.3334 17.7846C45.2558 17.714 45.4564 17.5375 45.7606 16.78C46.5308 14.8671 47.327 12.9638 48.0939 11.0509C49.0357 8.695 49.4694 6.22038 49.6409 3.62059V3.61738ZM52.3884 20.1212C53.5826 19.3734 54.5276 18.4201 55.4693 17.4733C56.4402 16.4944 57.4176 15.5251 58.3496 14.5108C59.5664 13.1885 60.3172 12.0458 60.5729 11.221C59.7315 11.5162 59.0033 11.9303 58.3172 12.3989C56.2234 13.8336 54.2655 15.4288 52.5211 17.2679C52.026 17.7911 51.6247 18.4073 51.1975 18.9947C51.0972 19.1327 51.0681 19.3188 51.0001 19.5018C51.4855 19.72 51.8998 19.9062 52.3917 20.1244L52.3884 20.1212ZM35.0001 12.4695C35.0422 12.845 35.026 13.0023 35.081 13.1275C35.3884 13.8689 35.6765 14.6199 36.0389 15.3325C36.6732 16.581 37.6312 17.5728 38.6862 18.4811C38.8965 18.6641 39.1263 18.8053 39.4176 18.7379C39.8221 18.6416 40.2558 18.5902 40.5503 18.1666C39.3205 15.7915 37.7347 13.7501 35.0001 12.4695ZM54.2784 22.4707C55.5244 21.9764 56.5697 21.4179 57.6085 20.8466C58.6894 20.2496 59.6635 19.5114 60.5308 18.6384C60.6344 18.5357 60.7736 18.4426 60.5761 18.2276C58.0713 18.51 55.7736 19.2835 53.9548 21.251C54.0583 21.6394 54.1522 21.9957 54.2752 22.4707H54.2784Z" fill="black"/>
<path d="M13.8381 41.9882C14.4077 42.3477 14.9611 42.6911 15.508 43.0442C16.22 43.4999 16.9449 43.9364 17.631 44.4243C18.0032 44.6875 18.3398 45.0149 18.631 45.3615C18.7896 45.5477 18.8705 45.8365 18.8899 46.0901C18.9223 46.4881 18.4207 46.7641 18.0614 46.5747C17.9611 46.5234 17.8543 46.4592 17.7896 46.3725C17.0873 45.4129 16.0194 44.9218 15.0647 44.2895C14.3915 43.8466 13.699 43.4325 13.0194 43.0024C12.5631 42.7136 12.2945 42.3316 12.411 41.7571C12.5081 41.266 12.3333 40.8584 11.9741 40.5214C11.0841 39.6901 10.5825 38.7048 10.7767 37.4434C10.5436 37.2669 10.3333 37.1064 10.1197 36.9523C9.90287 36.795 9.66663 36.6602 9.45627 36.4933C8.44333 35.6845 7.88345 34.7184 8.43362 33.3896C8.18119 32.9692 7.7799 32.7317 7.42067 32.4556C6.94494 32.093 6.65045 31.6147 6.48216 31.0498C6.22326 30.18 6.28799 29.3905 6.99349 28.7325C7.10352 28.6298 7.19737 28.5142 7.33329 28.3666C6.97731 27.2528 6.44009 26.1295 7.30093 24.9933C7.15206 24.8135 7.02261 24.6787 6.91582 24.5279C6.343 23.7287 6.19737 22.8621 6.50805 21.9217C6.75077 21.1931 7.02585 20.4741 7.55336 19.8996C7.85433 19.5722 8.00967 19.2224 8.06792 18.7859C8.27828 17.287 8.84138 15.9261 9.67634 14.6583C10.3495 13.6377 10.9482 12.5689 11.3171 11.3909C11.3495 11.285 11.3883 11.147 11.4692 11.0924C11.6181 10.9929 11.8155 10.8742 11.9676 10.8998C12.1197 10.9255 12.3139 11.0924 12.3689 11.2433C12.5242 11.6605 12.4077 12.0746 12.22 12.4597C11.7475 13.4194 11.3236 14.408 10.7734 15.3227C10.0356 16.5552 9.46274 17.8198 9.33653 19.2641C9.29122 19.7744 9.06792 20.2109 8.69252 20.5736C8.23621 21.0134 7.99349 21.5782 7.80579 22.1592C7.57925 22.8589 7.6375 23.4719 8.2718 24.0143C8.95465 24.5953 8.98378 24.9227 8.45627 25.6898C8.12941 26.1648 8.13588 26.6141 8.28799 27.0956C8.40449 27.4583 8.57278 27.8049 8.73459 28.1515C8.94494 28.6041 8.80902 28.9636 8.45627 29.2749C8.39802 29.3263 8.33329 29.3648 8.26857 29.4065C7.98054 29.6023 7.67634 29.7917 7.67957 30.1961C7.67957 30.6743 7.82197 31.1012 8.21032 31.4125C8.38831 31.5569 8.58248 31.6853 8.75401 31.8394C9.00967 32.0705 9.26533 32.3048 9.49511 32.5583C9.8252 32.9242 9.98701 33.364 9.73782 33.8229C9.36242 34.5162 9.66663 34.9977 10.1909 35.4085C10.5501 35.6941 10.9449 35.9381 11.3333 36.1852C11.932 36.5672 12.3074 37.039 12.1229 37.7997C11.9741 38.4223 12.2621 38.9134 12.6569 39.3595C13.3408 40.1384 13.7357 41.0157 13.8414 41.9914L13.8381 41.9882Z" fill="black"/>
<path d="M14.3399 13.3199C13.4111 12.4822 13.2654 11.4166 13.5243 10.274C13.6667 9.64492 13.8997 9.0351 14.1133 8.42206C14.1619 8.28726 14.2622 8.12678 14.3852 8.069C14.5438 7.99518 14.7735 7.94704 14.9192 8.01123C15.0616 8.07221 15.2201 8.28726 15.2234 8.43811C15.2298 8.69488 15.1166 8.95165 15.0551 9.21163C14.9289 9.76689 14.7703 10.3222 14.6894 10.8838C14.615 11.391 14.7088 11.8788 15.1586 12.2255C15.602 12.5689 15.7185 13.0407 15.6408 13.5607C15.5082 14.4658 15.3625 15.3709 15.1878 16.2664C15.0777 16.8248 14.903 17.3705 14.7541 17.9193C14.903 18.0958 15.0227 18.2435 15.1457 18.3879C15.5114 18.8148 15.6894 19.3027 15.6441 19.8676C15.6279 20.0569 15.6376 20.2495 15.615 20.4389C15.5502 21.023 15.7638 21.4788 16.2169 21.8479C16.4531 22.0405 16.67 22.2651 16.8868 22.4802C17.314 22.9071 17.3884 23.4078 17.1813 23.9598C17.1392 24.0657 17.0907 24.1717 17.0389 24.2712C16.5955 25.096 16.6538 25.892 17.2104 26.6366C17.4046 26.8966 17.5211 27.1566 17.5179 27.4776C17.5082 28.158 17.7735 28.7389 18.1651 29.2782C18.2557 29.4001 18.3496 29.5253 18.4111 29.6601C18.5146 29.8912 18.4564 30.1062 18.2881 30.2924C18.1101 30.485 17.8609 30.5363 17.657 30.4208C17.3981 30.2731 17.1425 30.0773 16.9677 29.8398C16.6052 29.3423 16.3625 28.7742 16.2719 28.158C16.2201 27.8178 16.1457 27.5 15.9742 27.1855C15.369 26.091 15.1975 24.9548 15.8156 23.7961C15.8512 23.7287 15.8641 23.6517 15.8803 23.5779C15.89 23.5426 15.8803 23.5041 15.8803 23.3725C15.6926 23.1767 15.479 22.9103 15.2201 22.692C14.5146 22.095 14.2395 21.3247 14.314 20.4421C14.369 19.7969 14.3593 19.2449 13.6991 18.8597C13.3819 18.6768 13.3302 18.2916 13.4143 17.9289C13.5179 17.4828 13.6182 17.0335 13.7541 16.597C14.0745 15.5699 14.2881 14.5268 14.3399 13.3167V13.3199Z" fill="black"/>
<path d="M24.8025 9.18914C24.4433 9.25013 24.1521 9.32074 23.8543 9.34642C23.3851 9.38172 23.055 9.11532 22.9255 8.65956C22.8025 8.22305 22.932 7.82506 23.1035 7.4399C23.2006 7.22165 23.3818 7.07401 23.644 7.08364C23.9029 7.09326 24.0744 7.22486 24.1553 7.46879C24.1909 7.57471 24.22 7.68383 24.2459 7.77049C24.3915 7.95023 24.5436 7.83469 24.686 7.82506C25.4983 7.78333 25.8576 8.01763 26.0129 8.75585C26.1003 9.16347 26.1132 9.59035 26.1553 10.0076C26.1812 10.2708 26.2006 10.534 26.2297 10.8485C26.4142 10.9159 26.5889 10.9769 26.7605 11.0443C27.275 11.2433 27.5566 11.6285 27.644 12.158C27.7184 12.6074 27.7864 13.0599 27.8608 13.5221C28.1779 13.7147 28.4951 13.8623 28.7475 14.0806C28.9029 14.2154 29.0097 14.4561 29.0388 14.6648C29.0906 15.0114 28.6828 15.3677 28.3689 15.2425C27.2491 14.7963 26.6472 14.607 26.4724 13.2204C26.4401 12.9572 26.4012 12.694 26.3721 12.4854C26.2783 12.3859 26.233 12.2993 26.1715 12.28C25.1682 11.9719 24.7799 11.2786 24.8414 10.274C24.8608 9.93699 24.8187 9.59677 24.7993 9.19556L24.8025 9.18914Z" fill="black"/>
<path d="M10.7086 26.9608C10.7086 26.2932 10.851 25.6705 11.2232 25.1088C11.3979 24.8488 11.6924 24.7429 11.9125 24.852C12.1585 24.9708 12.2944 25.2372 12.2264 25.5228C12.1746 25.7443 12.0646 25.9529 12.0161 26.1744C11.7992 27.1726 11.906 28.0777 12.8381 28.71C13.4206 29.1048 13.7021 29.66 13.7636 30.3469C13.796 30.7256 13.851 31.1044 13.8834 31.4863C13.8963 31.6372 13.8899 31.7912 13.864 31.9389C13.8057 32.2951 13.5695 32.523 13.2685 32.5359C12.9675 32.5487 12.7054 32.3401 12.6439 31.9806C12.5662 31.5312 12.5306 31.0723 12.4756 30.6197C12.4303 30.2249 12.2976 29.9008 11.9384 29.66C10.9805 29.0149 10.7572 28.0231 10.7021 26.964L10.7086 26.9608Z" fill="black"/>
<path d="M30.2523 9.49404C29.9416 9.51972 29.7151 9.5486 29.4886 9.55823C29.0873 9.57428 28.7345 9.43627 28.4335 9.17308C28.1455 8.92273 27.8575 8.67559 27.5824 8.4124C27.33 8.17168 27.3429 7.74801 27.5889 7.48482C27.7928 7.26656 28.1649 7.22163 28.4271 7.42705C28.7248 7.66135 28.9934 7.93737 29.3397 8.25834C29.5565 8.2455 29.8607 8.23908 30.1617 8.21019C30.7216 8.15884 31.139 8.37709 31.4012 8.86495C31.6698 9.36886 31.9319 9.87598 32.1779 10.3927C32.2911 10.627 32.1876 10.8389 32.0064 11.009C31.8219 11.1823 31.5792 11.2593 31.3753 11.1245C31.1293 10.9608 30.8931 10.749 30.7313 10.5083C30.5436 10.229 30.4368 9.89524 30.2555 9.49725L30.2523 9.49404Z" fill="black"/>
<path d="M20.4919 10.0878C20.6279 9.93056 20.7411 9.72515 20.9127 9.62244C21.1392 9.48763 21.4855 9.62886 21.5826 9.88563C21.712 10.2387 21.7897 10.611 21.89 10.9769C21.9903 11.3524 22.136 11.6862 22.5275 11.8692C23.0906 12.1356 23.3528 12.6331 23.5049 13.2044C23.6117 13.6088 23.7347 14.0068 23.8253 14.4144C23.8997 14.7578 23.7314 15.0467 23.4434 15.143C23.136 15.2457 22.8026 15.1366 22.6667 14.8381C22.5275 14.5299 22.411 14.2026 22.3463 13.872C22.2557 13.4002 22.0874 13.0182 21.6214 12.7871C21.2266 12.5881 21.0033 12.2254 20.8965 11.805C20.7541 11.2561 20.6343 10.7009 20.4919 10.091V10.0878Z" fill="black"/>
<path d="M9.9256 42.781C9.79291 42.7136 9.50812 42.6398 9.33984 42.4632C8.95149 42.0492 8.58256 41.6063 8.27835 41.128C7.97414 40.653 7.75084 40.1234 7.51136 39.6099C7.36896 39.3018 7.4887 38.968 7.76055 38.8203C7.98385 38.6983 8.301 38.7304 8.49194 38.9551C8.71201 39.2119 8.95796 39.4879 9.05181 39.7992C9.29453 40.5888 9.70877 41.2436 10.3398 41.7764C10.424 41.847 10.4822 41.9529 10.534 42.0524C10.6861 42.3605 10.3981 42.7906 9.92883 42.7874L9.9256 42.781Z" fill="black"/>
<path d="M3.23956 21.9891C3.28487 21.3311 3.40785 20.8176 3.79296 20.4036C3.95801 20.2238 4.17484 20.1404 4.41432 20.2559C4.64086 20.3651 4.74442 20.564 4.73471 20.8144C4.73471 20.8882 4.73147 20.9717 4.69911 21.0391C4.48228 21.5045 4.43374 21.9731 4.53083 22.4834C4.58908 22.7947 4.38843 23.0419 4.14248 23.0964C3.89976 23.151 3.60526 23.0194 3.48552 22.7434C3.36578 22.4706 3.29458 22.1721 3.23633 21.9891H3.23956Z" fill="black"/>
<path d="M30.356 17.7684C30.4013 17.5983 30.424 17.4475 30.4822 17.3095C30.6279 16.9821 31.1327 16.9307 31.3463 17.2132C31.369 17.2421 31.4046 17.2677 31.4143 17.303C31.5793 17.8519 31.8123 18.3686 32.1165 18.8597C32.1877 18.9753 32.1262 19.2384 32.0356 19.3765C31.9062 19.5755 31.6699 19.6589 31.424 19.5498C31.2881 19.4888 31.1424 19.4118 31.0421 19.3058C30.6376 18.8693 30.4725 18.3237 30.3528 17.7684H30.356Z" fill="black"/>
<path d="M3.67969 32.2663C3.6894 32.1796 3.6894 32.0994 3.71205 32.0288C3.78001 31.7977 3.90622 31.6083 4.16836 31.5795C4.41755 31.5506 4.62467 31.6501 4.725 31.8844C4.91917 32.3369 5.09069 32.7991 5.27839 33.2549C5.37548 33.4956 5.33017 33.7042 5.14571 33.8743C4.96124 34.0444 4.60202 34.0444 4.39813 33.884C4.33988 33.839 4.28163 33.7845 4.23632 33.7267C3.89652 33.2934 3.74765 32.7863 3.67969 32.2663Z" fill="black"/>
<path d="M18.7249 5.88321C19.3398 5.91852 19.8285 6.20096 20.2104 6.65994C20.3657 6.8461 20.3948 7.07398 20.2589 7.29865C20.1197 7.52333 19.8285 7.60999 19.5469 7.48481C19.1618 7.3147 18.7864 7.12533 18.4078 6.94239C18.1003 6.79153 17.9547 6.56365 18.0097 6.32293C18.0712 6.04369 18.3625 5.86716 18.7282 5.88321H18.7249Z" fill="black"/>
<path d="M15.7994 35.906C15.8156 36.3971 15.3884 36.6795 15.0745 36.5479C14.6635 36.3746 14.3754 35.8707 14.5016 35.447C14.547 35.293 14.7185 35.1196 14.8673 35.0747C15.0162 35.0298 15.2881 35.0747 15.3754 35.1806C15.5825 35.431 15.7088 35.7455 15.7994 35.906Z" fill="black"/>
<path d="M21.6506 48.9017C21.6635 49.1842 21.4758 49.4441 21.2299 49.4762C20.9095 49.5212 20.5697 49.2451 20.5179 48.8985C20.4758 48.6064 20.7218 48.2919 21.0195 48.2598C21.3431 48.2245 21.6344 48.5166 21.6538 48.8985L21.6506 48.9017Z" fill="black"/>
<path d="M25.2491 46.0644C25.8338 46.1907 26.5016 46.7459 27.2524 47.7302C27.7508 47.7109 28.2815 47.7302 28.5987 48.2919C28.6731 48.4235 28.9061 48.5166 29.0809 48.539C29.5501 48.6 29.8511 48.8728 30.0841 49.2355C30.5598 49.9737 31.0064 50.728 31.7702 51.2319C32.0258 51.3988 32.0291 51.723 31.8802 51.9508C31.6957 52.2269 31.3883 52.3328 31.0744 52.2108C30.5954 52.0247 30.2168 51.6973 29.9126 51.2993C29.6116 50.9077 29.3398 50.4905 29.0161 50.0251C28.466 50.0187 27.9223 49.8838 27.6051 49.3157C27.5566 49.2291 27.4271 49.1521 27.3268 49.1392C26.4919 49.0494 26.0712 48.478 25.7249 47.8104C25.6893 47.743 25.631 47.6917 25.5825 47.6307C25.5178 47.5922 25.4563 47.528 25.3915 47.5216C25.0064 47.4863 24.6084 47.4734 24.3689 47.1075C24.0712 46.6518 23.8608 46.1543 23.9352 45.6054C23.9546 45.4546 24.1326 45.2556 24.2783 45.2074C24.4271 45.1593 24.686 45.2171 24.7961 45.3294C24.9773 45.5124 25.0776 45.7723 25.2491 46.0676V46.0644Z" fill="black"/>
<path d="M31.5696 46.0452C32.6472 46.1832 33.1488 46.854 33.4142 47.7623C33.4789 47.9806 33.5048 48.2566 33.6537 48.3978C34.22 48.9499 34.3333 49.6528 34.3754 50.3782C34.6472 50.5387 34.9061 50.6414 35.0938 50.8179C35.3107 51.0201 35.4919 51.2737 35.6343 51.5336C35.7573 51.7551 35.644 51.9894 35.4692 52.1531C35.288 52.3232 35.0323 52.3842 34.8285 52.259C34.0194 51.7615 33.1327 51.3186 33.0129 50.2113C32.9935 50.0251 32.9838 49.7972 32.8738 49.6656C32.466 49.1746 32.3171 48.584 32.1488 47.9998C32.0194 47.5537 31.767 47.2841 31.2718 47.2199C30.3301 47.0979 30.0518 46.2538 30.4077 45.3744C30.5016 45.1465 30.6764 44.9956 30.932 44.9924C31.1909 44.9924 31.3624 45.1561 31.4401 45.384C31.5016 45.5637 31.5145 45.7563 31.5696 46.0388V46.0452Z" fill="black"/>
<path d="M36.2913 47.1236C36.0745 47.1365 35.9256 47.1653 35.7767 47.1557C35.3398 47.1268 35.0745 46.8829 34.9709 46.4689C34.7962 45.7788 34.958 45.1048 35.1327 44.4468C35.1683 44.312 35.4078 44.174 35.5729 44.1419C35.8156 44.0937 36.0453 44.2446 36.1036 44.4789C36.1845 44.8031 36.1877 45.1465 36.2266 45.4707C37.3496 45.9938 37.1068 45.6055 37.8318 47.4863C38.1295 47.6436 38.5502 47.7238 38.6894 47.9677C38.9483 48.4139 39.068 48.9499 39.1877 49.4634C39.2201 49.5982 39.0712 49.8197 38.945 49.9352C38.7573 50.1054 38.4984 50.0733 38.301 49.9352C38.1489 49.8325 38.0356 49.6656 37.9321 49.5084C37.8059 49.3158 37.7055 49.1232 37.4402 49.0783C36.9547 48.998 36.7573 48.6321 36.6279 48.2117C36.5275 47.8875 36.4272 47.5601 36.2913 47.1236Z" fill="black"/>
<path d="M41.7411 47.8843C41.6408 48.0126 41.5372 48.2245 41.3689 48.34C41.1554 48.4845 40.8253 48.3625 40.6732 48.1186C40.5534 47.926 40.4466 47.7206 40.3689 47.5087C39.9029 46.2634 39.4434 45.0149 38.9903 43.7631C38.9062 43.532 38.9418 43.3106 39.1424 43.1437C39.3333 42.9864 39.7023 42.9896 39.8867 43.1758C40.0453 43.3362 40.2104 43.5192 40.288 43.7214C40.767 44.9635 41.2233 46.2153 41.6796 47.467C41.7185 47.5729 41.7152 47.6917 41.7444 47.8875L41.7411 47.8843Z" fill="black"/>
<path d="M43.5145 51.0554C43.4304 51.2158 43.3592 51.4373 43.2168 51.6042C42.9838 51.8834 42.4821 51.8032 42.3559 51.463C42.2135 51.0746 42.1035 50.6734 42.0064 50.2722C41.9482 50.0315 42.042 49.8261 42.2621 49.6849C42.4821 49.5404 42.6957 49.5629 42.9093 49.6945C43.4012 49.9962 43.4142 50.5162 43.5177 51.0586L43.5145 51.0554Z" fill="black"/>
<path d="M41.1813 51.6556C41.0583 51.8065 40.958 52.0343 40.7832 52.1274C40.3495 52.3649 39.9677 52.1306 39.6311 51.8739C39.2751 51.601 39.0906 51.2416 39.2201 50.7762C39.3042 50.4809 39.7055 50.3076 39.958 50.4809C40.3269 50.7312 40.6829 51.004 41.0292 51.2865C41.1036 51.3475 41.1165 51.4887 41.1813 51.6556Z" fill="black"/>
<path d="M26.8123 40.6113C25.7217 40.6498 24.6699 40.3963 23.6117 40.1908C22.5955 39.9918 21.7864 39.4077 21.0389 38.7273C20.767 38.4801 20.657 38.172 20.657 37.8061C20.657 37.3439 20.712 36.9042 20.8997 36.4677C21.4531 35.187 22.2654 34.0733 23.1715 33.0302C25.2654 30.6133 27.6117 28.4597 30.2945 26.7008C33.4272 24.6499 36.7703 23.0194 40.4337 22.1079C41.2913 21.8928 42.1521 21.697 43.0162 21.5109C44.2363 21.2477 45.4499 21.2798 46.6796 21.5109C47.4919 21.6617 48.2266 21.9474 48.9321 22.3518C50.7152 23.3757 51.2557 25.0735 50.4337 26.9672C49.7702 28.4918 48.8512 29.8495 47.6635 31.021C45.8803 32.7798 43.9062 34.3044 41.7444 35.5754C40.0227 36.5896 38.2719 37.5429 36.411 38.3004C33.9062 39.3178 31.3107 40.0111 28.657 40.4925C28.055 40.6017 27.4304 40.5792 26.8156 40.6145L26.8123 40.6113ZM26.9774 39.3531C27.9062 39.2215 28.7832 39.122 29.6505 38.9648C31.6602 38.5957 33.5987 37.9858 35.5081 37.2669C37.2751 36.5993 38.9288 35.7006 40.5631 34.773C42.7767 33.518 44.7897 31.9871 46.6246 30.225C47.6279 29.2621 48.4402 28.1484 49.0291 26.8934C49.2201 26.4858 49.3431 26.0396 49.4531 25.5999C49.6408 24.8425 49.3139 24.2487 48.7379 23.7897C48.1942 23.3596 47.5858 23.0419 46.8965 22.875C45.3657 22.5058 43.8285 22.5668 42.3269 22.9456C40.8026 23.3307 39.2654 23.7287 37.8026 24.2936C34.1198 25.7155 30.7282 27.638 27.767 30.2731C26.0712 31.7816 24.466 33.3672 23.1165 35.1903C22.6861 35.7712 22.3301 36.4099 21.9903 37.0486C21.7508 37.5012 21.8285 37.7066 22.2298 38.0404C22.7055 38.4384 23.2201 38.8043 23.8317 38.9134C24.8868 39.1028 25.958 39.2151 26.9806 39.3531H26.9774Z" fill="black"/>
<path d="M43.356 27.7407C43.356 28.5431 43.3657 29.3455 43.3495 30.1479C43.343 30.4079 43.3106 30.6872 43.2038 30.9182C43.1424 31.053 42.9061 31.1814 42.7475 31.1846C42.589 31.1879 42.3527 31.0723 42.2783 30.9375C42.1553 30.7096 42.0776 30.4304 42.0776 30.1704C42.0776 28.5656 42.1035 26.964 42.1359 25.3592C42.1391 25.1409 42.2168 24.9034 42.3236 24.7108C42.4401 24.499 42.6828 24.3867 42.9158 24.4958C43.0712 24.5664 43.1941 24.7333 43.2912 24.881C43.3462 24.9644 43.3236 25.1024 43.3236 25.218C43.3236 26.0589 43.3236 26.8998 43.3236 27.7407H43.3495H43.356Z" fill="black"/>
<path d="M35.4659 34.4809C35.3591 34.6286 35.2815 34.8276 35.1358 34.9078C34.9934 34.9881 34.7669 34.9913 34.6051 34.9399C34.4336 34.8821 34.2815 34.7345 34.152 34.5997C33.1553 33.5437 32.1617 32.4813 31.1714 31.4158C31.042 31.2777 30.932 31.1173 30.8381 30.9536C30.6925 30.7032 30.7507 30.3951 30.9708 30.2378C31.1779 30.0902 31.4012 30.0741 31.6116 30.2314C31.7345 30.3213 31.8478 30.424 31.9546 30.5331C32.8672 31.4575 33.7831 32.3851 34.6892 33.3158C34.8996 33.5341 35.0905 33.778 35.2685 34.0252C35.3559 34.1439 35.3915 34.3012 35.4659 34.4777V34.4809Z" fill="black"/>
<path d="M36.4952 27.1148C36.712 27.2946 36.9677 27.3973 37.0324 27.5738C37.602 29.1144 38.1457 30.6647 38.6829 32.2149C38.8059 32.568 38.6667 32.8761 38.3852 32.9884C38.1004 33.104 37.7897 33.0045 37.5891 32.7028C37.4402 32.4813 37.2946 32.247 37.2137 31.9967C36.8059 30.7642 36.4143 29.5253 36.0357 28.2831C35.9709 28.0745 35.9483 27.8113 36.0195 27.6123C36.0842 27.4326 36.3043 27.3042 36.4952 27.1116V27.1148Z" fill="black"/>
<path d="M30.3011 37.1257C30.0972 37.0711 29.9516 37.0326 29.8059 36.9877C28.6344 36.6186 27.5179 36.1243 26.4532 35.5144C25.9807 35.2448 25.8415 34.9207 26.0325 34.6093C26.1943 34.3397 26.505 34.2852 26.958 34.4713C27.9807 34.8918 29.0033 35.3219 30.0195 35.7584C30.2266 35.8482 30.437 35.9606 30.6085 36.105C30.7865 36.2559 30.9192 36.4934 30.78 36.7116C30.67 36.885 30.4596 36.9973 30.3043 37.1289L30.3011 37.1257Z" fill="black"/>
</g>
<defs>
<clipPath id="clip0_8308_747">
<rect width="63" height="55" fill="white"/>
</clipPath>
</defs>
</svg>
